<?xml version="1.0" encoding="utf-8"?>
<!-- Generator: Adobe Illustrator 25.4.1, SVG Export Plug-In . SVG Version: 6.00 Build 0)  -->
<svg version="1.1" id="Layer_1" xmlns="http://www.w3.org/2000/svg" xmlns:xlink="http://www.w3.org/1999/xlink" x="0px" y="0px"
	 width="1140px" height="342px" viewBox="0 0 1140 342" style="enable-background:new 0 0 1140 342;" xml:space="preserve">
<style type="text/css">
	.st0{clip-path:url(#SVGID_00000047772641934576262090000012997328726626984120_);}
	.st1{fill:url(#SVGID_00000159435728065979175740000011180415843823084953_);}
	.st2{fill:#FFFFFF;}
	.st3{fill:#28451F;}
	.st4{fill:url(#SVGID_00000101083791321547134170000015842886439513573556_);}
</style>
<g>
	<defs>
		<rect id="SVGID_1_" width="1140" height="342"/>
	</defs>
	<clipPath id="SVGID_00000176007408748082058170000008845817464046341018_">
		<use xlink:href="#SVGID_1_"  style="overflow:visible;"/>
	</clipPath>
	<g style="clip-path:url(#SVGID_00000176007408748082058170000008845817464046341018_);">
		
			<linearGradient id="SVGID_00000029745015046296150280000003170425602669243318_" gradientUnits="userSpaceOnUse" x1="-7.4817" y1="430.658" x2="1141.0363" y2="-232.4392">
			<stop  offset="0" style="stop-color:#CC0000"/>
			<stop  offset="0.2929" style="stop-color:#CC0200"/>
			<stop  offset="0.3985" style="stop-color:#CD0900"/>
			<stop  offset="0.4737" style="stop-color:#CE1400"/>
			<stop  offset="0.5345" style="stop-color:#CF2500"/>
			<stop  offset="0.586" style="stop-color:#D13B00"/>
			<stop  offset="0.6164" style="stop-color:#D24C00"/>
			<stop  offset="0.6919" style="stop-color:#DC5B00"/>
			<stop  offset="0.7963" style="stop-color:#ED7600"/>
			<stop  offset="0.9656" style="stop-color:#FFCE00"/>
		</linearGradient>
		<path style="fill:url(#SVGID_00000029745015046296150280000003170425602669243318_);" d="M344,250c-70.7-24-132.1-22.1-208.7,1.6
			C72.2,271.1,26.3,306-3,332.9c-17.7,25.7-35.3,51.4-53,77.1v-519h1219.5c4.8,141,9.7,281.9,14.5,422.9
			c-33.5-32.7-85.4-73.1-155.9-88.4c-66.9-14.5-103-13.3-201.1,24.5C712.5,291.8,491.2,300,344,250z"/>
		<path class="st2" d="M0,342L0,342 M0,342L0,342L0,342"/>
	</g>
</g>
<path class="st3" d="M19,292.9"/>
<g>
	<path class="st2" d="M287.4,114.2c3.6,3.6,5.4,9,5.4,16.2v27.5h-19.9v-24c0-5.5-2-8.3-5.9-8.3c-2.2,0-4,0.8-5.4,2.3
		c-1.4,1.6-2.1,4-2.1,7.3v22.6h-19.9V92.6h19.9v21c3.7-3.2,8.2-4.8,13.6-4.8C279,108.9,283.8,110.7,287.4,114.2z"/>
	<path class="st2" d="M353.3,138.4h-33.4c0.7,1.8,1.9,3.2,3.5,4.2c1.6,1,3.7,1.5,6.2,1.5c2.1,0,3.9-0.3,5.3-0.8
		c1.4-0.5,3-1.4,4.7-2.7l10.4,10.5c-4.7,5.2-11.7,7.7-21,7.7c-5.8,0-10.9-1.1-15.3-3.2c-4.4-2.1-7.8-5.1-10.2-8.9
		c-2.4-3.8-3.6-8.1-3.6-12.8c0-4.8,1.2-9.1,3.6-12.9c2.4-3.8,5.6-6.7,9.8-8.8c4.1-2.1,8.8-3.2,13.9-3.2c4.9,0,9.3,1,13.3,2.9
		c4,1.9,7.2,4.8,9.6,8.5c2.4,3.8,3.6,8.2,3.6,13.5C353.5,134.1,353.5,135.6,353.3,138.4z M322.1,124.1c-1.4,1.1-2.2,2.7-2.6,4.8H335
		c-0.4-2-1.3-3.6-2.6-4.7c-1.4-1.1-3.1-1.7-5.1-1.7C325.2,122.4,323.5,123,322.1,124.1z"/>
	<path class="st2" d="M412.5,109.8l-19.8,49.1c-2.5,6.3-5.7,10.7-9.4,13.2c-3.8,2.5-8.4,3.8-13.8,3.8c-2.7,0-5.4-0.4-8.1-1.2
		c-2.7-0.8-4.9-1.8-6.5-3.1l6.6-13.6c1,0.8,2.1,1.4,3.4,1.8c1.3,0.5,2.5,0.7,3.7,0.7c2.2,0,3.8-0.6,4.9-1.9l-20.2-48.8h20.4
		l9.9,25.8l10.1-25.8H412.5z"/>
	<path class="st2" d="M430.3,139.1c2.2,2.1,3.3,4.8,3.3,8.2c0,1.5-0.2,3.1-0.6,4.6c-0.4,1.5-1.4,3.8-2.8,7l-6.2,13.1h-12.3l4.4-14.9
		c-1.8-0.9-3.2-2.2-4.2-3.8c-1-1.7-1.5-3.7-1.5-5.9c0-3.4,1.1-6.1,3.3-8.2c2.2-2.1,5-3.1,8.4-3.1
		C425.3,136.1,428.1,137.1,430.3,139.1z"/>
	<path class="st2" d="M467.4,103c-2.2-1.9-3.3-4.3-3.3-7.3c0-2.9,1.1-5.4,3.3-7.3c2.2-1.9,5.1-2.9,8.7-2.9c3.6,0,6.5,0.9,8.7,2.7
		c2.2,1.8,3.3,4.2,3.3,7c0,3.1-1.1,5.6-3.3,7.5c-2.2,2-5.1,2.9-8.7,2.9C472.5,105.9,469.6,104.9,467.4,103z M466.1,109.8H486v48.1
		h-19.9V109.8z"/>
	<path class="st2" d="M512.1,94.8c2.2,2.1,3.3,4.8,3.3,8.2c0,1.5-0.2,3.1-0.6,4.6c-0.4,1.5-1.4,3.8-2.8,7l-6.2,13.1h-12.3l4.4-14.9
		c-1.8-0.9-3.2-2.2-4.2-3.8c-1-1.7-1.5-3.7-1.5-5.9c0-3.4,1.1-6.1,3.3-8.2c2.2-2.1,5-3.1,8.4-3.1C507.2,91.7,510,92.7,512.1,94.8z"
		/>
	<path class="st2" d="M599.2,114.2c3.5,3.6,5.2,9,5.2,16.2v27.5h-19.9v-24c0-5.5-1.8-8.3-5.4-8.3c-1.9,0-3.4,0.7-4.5,2.1
		c-1.1,1.4-1.7,3.6-1.7,6.7v23.5H553v-24c0-5.5-1.8-8.3-5.4-8.3c-1.9,0-3.4,0.7-4.5,2.1c-1.1,1.4-1.7,3.6-1.7,6.7v23.5h-19.9v-48.1
		h18.9v4.5c3.6-3.6,8.1-5.4,13.6-5.4c3.2,0,6.1,0.6,8.7,1.8c2.6,1.2,4.7,3,6.3,5.5c1.9-2.3,4.3-4.1,7-5.4c2.8-1.3,5.8-1.9,9.1-1.9
		C591.1,108.9,595.7,110.7,599.2,114.2z"/>
	<path class="st2" d="M648.1,157.6c-4.8-1.1-8.8-2.7-11.9-4.6l6.7-15.1c2.9,1.7,6.2,3.1,9.9,4.1c3.6,1,7.1,1.5,10.5,1.5
		c2.9,0,4.9-0.3,6.2-0.8c1.2-0.6,1.8-1.4,1.8-2.5c0-1.3-0.8-2.3-2.4-2.9c-1.6-0.6-4.3-1.3-8-2.1c-4.8-1-8.7-2.1-11.9-3.2
		s-5.9-3-8.3-5.6c-2.3-2.6-3.5-6.1-3.5-10.6c0-3.9,1.1-7.4,3.3-10.6c2.2-3.2,5.4-5.7,9.7-7.5c4.3-1.8,9.5-2.7,15.7-2.7
		c4.2,0,8.4,0.5,12.5,1.4c4.1,0.9,7.7,2.2,10.8,4l-6.2,15c-6-3-11.8-4.6-17.2-4.6c-5.3,0-8,1.3-8,3.9c0,1.2,0.8,2.2,2.4,2.8
		c1.6,0.6,4.2,1.3,7.8,2c4.7,0.9,8.7,1.9,11.9,3c3.2,1.1,6,3,8.4,5.6c2.4,2.6,3.6,6.1,3.6,10.6c0,3.9-1.1,7.4-3.3,10.5
		c-2.2,3.1-5.4,5.6-9.7,7.5c-4.3,1.8-9.5,2.8-15.7,2.8C657.9,159.3,653,158.7,648.1,157.6z"/>
	<path class="st2" d="M698.5,103c-2.2-1.9-3.3-4.3-3.3-7.3c0-2.9,1.1-5.4,3.3-7.3c2.2-1.9,5.1-2.9,8.7-2.9c3.6,0,6.5,0.9,8.7,2.7
		c2.2,1.8,3.3,4.2,3.3,7c0,3.1-1.1,5.6-3.3,7.5c-2.2,2-5.1,2.9-8.7,2.9C703.6,105.9,700.7,104.9,698.5,103z M697.3,109.8h19.9v48.1
		h-19.9V109.8z"/>
	<path class="st2" d="M803.6,114.2c3.5,3.6,5.2,9,5.2,16.2v27.5H789v-24c0-5.5-1.8-8.3-5.4-8.3c-1.9,0-3.4,0.7-4.5,2.1
		c-1.1,1.4-1.7,3.6-1.7,6.7v23.5h-19.9v-24c0-5.5-1.8-8.3-5.4-8.3c-1.9,0-3.4,0.7-4.5,2.1c-1.1,1.4-1.7,3.6-1.7,6.7v23.5H726v-48.1
		h18.9v4.5c3.6-3.6,8.1-5.4,13.6-5.4c3.2,0,6.1,0.6,8.7,1.8c2.6,1.2,4.7,3,6.3,5.5c1.9-2.3,4.3-4.1,7-5.4c2.8-1.3,5.8-1.9,9.1-1.9
		C795.5,108.9,800.1,110.7,803.6,114.2z"/>
	<path class="st2" d="M829.4,155.6c-4.3-2.1-7.6-5.1-10-8.9c-2.4-3.8-3.6-8.1-3.6-12.9c0-4.8,1.2-9.1,3.6-12.9
		c2.4-3.8,5.7-6.7,10-8.8c4.3-2.1,9-3.2,14.4-3.2c5.4,0,10.2,1.1,14.5,3.2c4.3,2.1,7.6,5.1,9.9,8.8c2.4,3.8,3.6,8.1,3.6,12.9
		c0,4.8-1.2,9.1-3.6,12.9c-2.4,3.8-5.7,6.7-9.9,8.9c-4.3,2.1-9.1,3.2-14.5,3.2C838.5,158.8,833.7,157.7,829.4,155.6z M849.4,140.8
		c1.5-1.7,2.2-4,2.2-7c0-3-0.7-5.3-2.2-7c-1.5-1.6-3.3-2.5-5.6-2.5s-4.2,0.8-5.6,2.5c-1.5,1.6-2.2,4-2.2,7c0,3,0.7,5.3,2.2,7
		c1.5,1.7,3.3,2.5,5.6,2.5S848,142.4,849.4,140.8z"/>
	<path class="st2" d="M925.8,114.2c3.6,3.6,5.4,9,5.4,16.2v27.5h-19.9v-24c0-5.5-2-8.3-5.9-8.3c-2.2,0-4,0.8-5.4,2.3
		c-1.4,1.6-2.1,4-2.1,7.3v22.6H878v-48.1h18.9v4.8c1.9-1.9,4-3.3,6.5-4.2c2.5-0.9,5.1-1.4,8-1.4
		C917.4,108.9,922.2,110.7,925.8,114.2z"/>
	<path class="st2" d="M937.3,96.3h23.8l-4,38h-15.8L937.3,96.3z M940.9,155.7c-2.2-2.1-3.3-4.5-3.3-7.5c0-3,1.1-5.5,3.3-7.4
		c2.2-2,5-2.9,8.4-2.9c3.4,0,6.2,1,8.4,2.9c2.2,2,3.3,4.4,3.3,7.4c0,2.9-1.1,5.4-3.3,7.5c-2.2,2.1-5,3.1-8.4,3.1
		C945.8,158.8,943,157.7,940.9,155.7z"/>
</g>
<path class="st2" d="M480,122.9"/>
<path class="st2" d="M540,142.9"/>
<linearGradient id="SVGID_00000154387010353904575230000005829689711697586054_" gradientUnits="userSpaceOnUse" x1="1158" y1="395.8898" x2="1158" y2="395.8898">
	<stop  offset="0" style="stop-color:#CC0000"/>
	<stop  offset="0.2929" style="stop-color:#CC0200"/>
	<stop  offset="0.3985" style="stop-color:#CD0900"/>
	<stop  offset="0.4737" style="stop-color:#CE1400"/>
	<stop  offset="0.5345" style="stop-color:#CF2500"/>
	<stop  offset="0.586" style="stop-color:#D13B00"/>
	<stop  offset="0.6164" style="stop-color:#D24C00"/>
	<stop  offset="0.6919" style="stop-color:#DC5B00"/>
	<stop  offset="0.7963" style="stop-color:#ED7600"/>
	<stop  offset="0.9656" style="stop-color:#FFCE00"/>
</linearGradient>
<path style="fill:url(#SVGID_00000154387010353904575230000005829689711697586054_);" d="M1158,395.9"/>
</svg>
