<?xml version="1.0" encoding="utf-8"?>
<!-- Generator: Adobe Illustrator 25.4.1, SVG Export Plug-In . SVG Version: 6.00 Build 0)  -->
<svg version="1.1" id="Layer_1" xmlns="http://www.w3.org/2000/svg" xmlns:xlink="http://www.w3.org/1999/xlink" x="0px" y="0px"
	 width="1140px" height="342px" viewBox="0 0 1140 342" style="enable-background:new 0 0 1140 342;" xml:space="preserve">
<style type="text/css">
	.st0{fill:#28451F;}
	.st1{fill:none;}
	.st2{fill:url(#SVGID_1_);}
	.st3{fill:url(#SVGID_00000119076429222430412940000000608951297379948717_);}
	.st4{fill:url(#SVGID_00000098915481412014026640000009644768322343279253_);}
	.st5{fill:url(#SVGID_00000039106163417217242940000016718872698092175528_);}
</style>
<path class="st0" d="M19,292.9"/>
<path class="st1" d="M1022.1,225.5C955.2,211,919.1,212.2,821,250c-108.5,41.8-329.8,50-477,0c-70.7-24-132.1-22.1-208.7,1.6
	C74.3,270.4,29.4,303.7,0,330.2V342h1140v-60.9C1109.2,257.8,1070,235.9,1022.1,225.5z"/>
<linearGradient id="SVGID_1_" gradientUnits="userSpaceOnUse" x1="76.786" y1="-234.7241" x2="1225.304" y2="428.373" gradientTransform="matrix(1 0 0 -1 0 341.8898)">
	<stop  offset="0" style="stop-color:#CC0000"/>
	<stop  offset="0.2929" style="stop-color:#CC0200"/>
	<stop  offset="0.3985" style="stop-color:#CD0900"/>
	<stop  offset="0.4737" style="stop-color:#CE1400"/>
	<stop  offset="0.5345" style="stop-color:#CF2500"/>
	<stop  offset="0.586" style="stop-color:#D13B00"/>
	<stop  offset="0.6164" style="stop-color:#D24C00"/>
	<stop  offset="0.6919" style="stop-color:#DC5B00"/>
	<stop  offset="0.7963" style="stop-color:#ED7600"/>
	<stop  offset="0.9656" style="stop-color:#FFCE00"/>
</linearGradient>
<path class="st2" d="M843.8,143.3c2.3,0,4.2-0.9,5.6-2.5c1.5-1.7,2.2-4,2.2-7s-0.7-5.3-2.2-7c-1.5-1.6-3.3-2.5-5.6-2.5
	s-4.2,0.8-5.6,2.5c-1.5,1.6-2.2,4-2.2,7s0.7,5.3,2.2,7C839.7,142.5,841.5,143.3,843.8,143.3z"/>
<linearGradient id="SVGID_00000055709009124960636650000005535997653952647850_" gradientUnits="userSpaceOnUse" x1="-55.198" y1="-6.121" x2="1093.3199" y2="656.9761" gradientTransform="matrix(1 0 0 -1 0 341.8898)">
	<stop  offset="0" style="stop-color:#CC0000"/>
	<stop  offset="0.2929" style="stop-color:#CC0200"/>
	<stop  offset="0.3985" style="stop-color:#CD0900"/>
	<stop  offset="0.4737" style="stop-color:#CE1400"/>
	<stop  offset="0.5345" style="stop-color:#CF2500"/>
	<stop  offset="0.586" style="stop-color:#D13B00"/>
	<stop  offset="0.6164" style="stop-color:#D24C00"/>
	<stop  offset="0.6919" style="stop-color:#DC5B00"/>
	<stop  offset="0.7963" style="stop-color:#ED7600"/>
	<stop  offset="0.9656" style="stop-color:#FFCE00"/>
</linearGradient>
<path style="fill:url(#SVGID_00000055709009124960636650000005535997653952647850_);" d="M332.4,124.2c-1.4-1.1-3.1-1.7-5.1-1.7
	c-2.1-0.1-3.8,0.5-5.2,1.6c-1.4,1.1-2.2,2.7-2.6,4.8H335C334.6,126.9,333.7,125.3,332.4,124.2z"/>
<linearGradient id="SVGID_00000129191940370915086140000007532823902562783673_" gradientUnits="userSpaceOnUse" x1="11.2662" y1="-121.018" x2="1159.7842" y2="542.0792" gradientTransform="matrix(1 0 0 -1 0 341.8898)">
	<stop  offset="0" style="stop-color:#CC0000"/>
	<stop  offset="0.2929" style="stop-color:#CC0200"/>
	<stop  offset="0.3985" style="stop-color:#CD0900"/>
	<stop  offset="0.4737" style="stop-color:#CE1400"/>
	<stop  offset="0.5345" style="stop-color:#CF2500"/>
	<stop  offset="0.586" style="stop-color:#D13B00"/>
	<stop  offset="0.6164" style="stop-color:#D24C00"/>
	<stop  offset="0.6919" style="stop-color:#DC5B00"/>
	<stop  offset="0.7963" style="stop-color:#ED7600"/>
	<stop  offset="0.9656" style="stop-color:#FFCE00"/>
</linearGradient>
<path style="fill:url(#SVGID_00000129191940370915086140000007532823902562783673_);" d="M344,249.8c147.2,50,368.5,41.8,477,0
	c98.1-37.8,134.2-39,201.1-24.5c47.9,10.4,87.1,32.3,117.9,55.6V-0.2H0V330c29.4-26.5,74.3-59.7,135.3-78.6
	C211.9,227.7,273.3,225.8,344,249.8z M486,157.7h-19.9v-48.1H486V157.7z M717.2,157.7h-19.9v-48.1h19.9V157.7z M957.7,155.5
	c-2.2,2.1-5,3.1-8.4,3.1c-3.5,0-6.3-1.1-8.4-3.1c-2.2-2.1-3.3-4.5-3.3-7.5s1.1-5.5,3.3-7.4c2.2-2,5-2.9,8.4-2.9s6.2,1,8.4,2.9
	c2.2,2,3.3,4.4,3.3,7.4C961,150.9,959.9,153.4,957.7,155.5z M961.1,96.1l-4,38h-15.8l-4-38H961.1z M878,109.5h18.9v4.8
	c1.9-1.9,4-3.3,6.5-4.2c2.5-0.9,5.1-1.4,8-1.4c6,0,10.8,1.8,14.4,5.3c3.6,3.6,5.4,9,5.4,16.2v27.5h-19.9v-24c0-5.5-2-8.3-5.9-8.3
	c-2.2,0-4,0.8-5.4,2.3c-1.4,1.6-2.1,4-2.1,7.3v22.6H878V109.5z M819.4,120.7c2.4-3.8,5.7-6.7,10-8.8c4.3-2.1,9-3.2,14.4-3.2
	s10.2,1.1,14.5,3.2c4.3,2.1,7.6,5.1,9.9,8.8c2.4,3.8,3.6,8.1,3.6,12.9c0,4.8-1.2,9.1-3.6,12.9c-2.4,3.8-5.7,6.7-9.9,8.9
	c-4.3,2.1-9.1,3.2-14.5,3.2c-5.3,0-10.1-1.1-14.4-3.2c-4.3-2.1-7.6-5.1-10-8.9s-3.6-8.1-3.6-12.9C815.8,128.8,817,124.5,819.4,120.7
	z M726,109.6h18.9v4.5c3.6-3.6,8.1-5.4,13.6-5.4c3.2,0,6.1,0.6,8.7,1.8c2.6,1.2,4.7,3,6.3,5.5c1.9-2.3,4.3-4.1,7-5.4
	c2.8-1.3,5.8-1.9,9.1-1.9c5.9,0,10.5,1.8,14,5.3c3.5,3.6,5.2,9,5.2,16.2v27.5H789v-24c0-5.5-1.8-8.3-5.4-8.3c-1.9,0-3.4,0.7-4.5,2.1
	c-1.1,1.4-1.7,3.6-1.7,6.7v23.5h-19.9v-24c0-5.5-1.8-8.3-5.4-8.3c-1.9,0-3.4,0.7-4.5,2.1c-1.1,1.4-1.7,3.6-1.7,6.7v23.5H726V109.6z
	 M698.5,88.2c2.2-1.9,5.1-2.9,8.7-2.9c3.6,0,6.5,0.9,8.7,2.7s3.3,4.2,3.3,7c0,3.1-1.1,5.6-3.3,7.5c-2.2,2-5.1,2.9-8.7,2.9
	c-3.6,0.3-6.5-0.7-8.7-2.6s-3.3-4.3-3.3-7.3C695.2,92.6,696.3,90.1,698.5,88.2z M668.9,137.1c-1.6-0.6-4.3-1.3-8-2.1
	c-4.8-1-8.7-2.1-11.9-3.2s-5.9-3-8.3-5.6c-2.3-2.6-3.5-6.1-3.5-10.6c0-3.9,1.1-7.4,3.3-10.6s5.4-5.7,9.7-7.5s9.5-2.7,15.7-2.7
	c4.2,0,8.4,0.5,12.5,1.4c4.1,0.9,7.7,2.2,10.8,4l-6.2,15c-6-3-11.8-4.6-17.2-4.6c-5.3,0-8,1.3-8,3.9c0,1.2,0.8,2.2,2.4,2.8
	c1.6,0.6,4.2,1.3,7.8,2c4.7,0.9,8.7,1.9,11.9,3c3.2,1.1,6,3,8.4,5.6c2.4,2.6,3.6,6.1,3.6,10.6c0,3.9-1.1,7.4-3.3,10.5
	c-2.2,3.1-5.4,5.6-9.7,7.5c-4.3,1.8-9.5,2.8-15.7,2.8c-5.3-0.2-10.2-0.8-15.1-1.9c-4.8-1.1-8.8-2.7-11.9-4.6l6.7-15.1
	c2.9,1.7,6.2,3.1,9.9,4.1c3.6,1,7.1,1.5,10.5,1.5c2.9,0,4.9-0.3,6.2-0.8c1.2-0.6,1.8-1.4,1.8-2.5
	C671.3,138.7,670.5,137.7,668.9,137.1z M521.5,109.6h18.9v4.5c3.6-3.6,8.1-5.4,13.6-5.4c3.2,0,6.1,0.6,8.7,1.8
	c2.6,1.2,4.7,3,6.3,5.5c1.9-2.3,4.3-4.1,7-5.4c2.8-1.3,5.8-1.9,9.1-1.9c6,0,10.6,1.8,14.1,5.3c3.5,3.6,5.2,9,5.2,16.2v27.5h-19.9
	v-24c0-5.5-1.8-8.3-5.4-8.3c-1.9,0-3.4,0.7-4.5,2.1c-1.1,1.4-1.7,3.6-1.7,6.7v23.5H553v-24c0-5.5-1.8-8.3-5.4-8.3
	c-1.9,0-3.4,0.7-4.5,2.1c-1.1,1.4-1.7,3.6-1.7,6.7v23.5h-19.9V109.6z M495.5,94.7c2.2-2.1,5-3.1,8.4-3.1c3.3-0.1,6.1,0.9,8.2,3
	c2.2,2.1,3.3,4.8,3.3,8.2c0,1.5-0.2,3.1-0.6,4.6c-0.4,1.5-1.4,3.8-2.8,7l-6.2,13.1h-12.3l4.4-14.9c-1.8-0.9-3.2-2.2-4.2-3.8
	c-1-1.7-1.5-3.7-1.5-5.9C492.2,99.5,493.3,96.8,495.5,94.7z M467.4,88.2c2.2-1.9,5.1-2.9,8.7-2.9c3.6,0,6.5,0.9,8.7,2.7
	s3.3,4.2,3.3,7c0,3.1-1.1,5.6-3.3,7.5c-2.2,2-5.1,2.9-8.7,2.9c-3.6,0.3-6.5-0.7-8.7-2.6s-3.3-4.3-3.3-7.3
	C464.1,92.6,465.2,90.1,467.4,88.2z M422.1,135.9c3.2,0,6,1,8.2,3c2.2,2.1,3.3,4.8,3.3,8.2c0,1.5-0.2,3.1-0.6,4.6
	c-0.4,1.5-1.4,3.8-2.8,7l-6.2,13.1h-12.3l4.4-14.9c-1.8-0.9-3.2-2.2-4.2-3.8c-1-1.7-1.5-3.7-1.5-5.9c0-3.4,1.1-6.1,3.3-8.2
	C415.9,136.9,418.7,135.9,422.1,135.9z M373.7,109.6l9.9,25.8l10.1-25.8h18.8l-19.8,49.1c-2.5,6.3-5.7,10.7-9.4,13.2
	c-3.8,2.5-8.4,3.8-13.8,3.8c-2.7,0-5.4-0.4-8.1-1.2s-4.9-1.8-6.5-3.1l6.6-13.6c1,0.8,2.1,1.4,3.4,1.8c1.3,0.5,2.5,0.7,3.7,0.7
	c2.2,0,3.8-0.6,4.9-1.9l-20.2-48.8H373.7z M303.5,120.8c2.4-3.8,5.6-6.7,9.8-8.8c4.1-2.1,8.8-3.2,13.9-3.2c4.9,0,9.3,1,13.3,2.9
	c4,1.9,7.2,4.8,9.6,8.5c2.4,3.8,3.6,8.2,3.6,13.5c-0.2,0.2-0.2,1.7-0.4,4.5h-33.4c0.7,1.8,1.9,3.2,3.5,4.2c1.6,1,3.7,1.5,6.2,1.5
	c2.1,0,3.9-0.3,5.3-0.8c1.4-0.5,3-1.4,4.7-2.7l10.4,10.5c-4.7,5.2-11.7,7.7-21,7.7c-5.8,0-10.9-1.1-15.3-3.2
	c-4.4-2.1-7.8-5.1-10.2-8.9c-2.4-3.8-3.6-8.1-3.6-12.8C299.9,128.9,301.1,124.6,303.5,120.8z M239.6,92.4h19.9v21
	c3.7-3.2,8.2-4.8,13.6-4.8c5.9,0.1,10.7,1.9,14.3,5.4c3.6,3.6,5.4,9,5.4,16.2v27.5h-19.9v-24c0-5.5-2-8.3-5.9-8.3
	c-2.2,0-4,0.8-5.4,2.3c-1.4,1.6-2.1,4-2.1,7.3v22.6h-19.9V92.4z"/>
<linearGradient id="SVGID_00000079476135417386522960000016038979394469808061_" gradientUnits="userSpaceOnUse" x1="1158" y1="-54.0102" x2="1158" y2="-54.0102" gradientTransform="matrix(1 0 0 -1 0 341.8898)">
	<stop  offset="0" style="stop-color:#CC0000"/>
	<stop  offset="0.2929" style="stop-color:#CC0200"/>
	<stop  offset="0.3985" style="stop-color:#CD0900"/>
	<stop  offset="0.4737" style="stop-color:#CE1400"/>
	<stop  offset="0.5345" style="stop-color:#CF2500"/>
	<stop  offset="0.586" style="stop-color:#D13B00"/>
	<stop  offset="0.6164" style="stop-color:#D24C00"/>
	<stop  offset="0.6919" style="stop-color:#DC5B00"/>
	<stop  offset="0.7963" style="stop-color:#ED7600"/>
	<stop  offset="0.9656" style="stop-color:#FFCE00"/>
</linearGradient>
<path style="fill:url(#SVGID_00000079476135417386522960000016038979394469808061_);" d="M1158,395.9"/>
</svg>
