<svg id="Layer_1" data-name="Layer 1" xmlns="http://www.w3.org/2000/svg" xmlns:xlink="http://www.w3.org/1999/xlink" viewBox="0 0 1234 519"><defs><style>.cls-1{fill:none;}.cls-2{clip-path:url(#clip-path);}.cls-3{fill:url(#linear-gradient);}.cls-4{fill:#fff;}.cls-5{fill:#28451f;}.cls-6{fill:url(#linear-gradient-2);}</style><clipPath id="clip-path" transform="translate(56 109)"><rect class="cls-1" width="1140" height="342"/></clipPath><linearGradient id="linear-gradient" x1="-7.48" y1="430.66" x2="1141.04" y2="-232.44" gradientUnits="userSpaceOnUse"><stop offset="0" stop-color="#c00"/><stop offset="0.29" stop-color="#cc0200"/><stop offset="0.4" stop-color="#cd0900"/><stop offset="0.47" stop-color="#ce1400"/><stop offset="0.53" stop-color="#cf2500"/><stop offset="0.59" stop-color="#d13b00"/><stop offset="0.62" stop-color="#d24c00"/><stop offset="0.69" stop-color="#dc5b00"/><stop offset="0.8" stop-color="#ed7600"/><stop offset="0.97" stop-color="#ffce00"/></linearGradient><linearGradient id="linear-gradient-2" x1="1158" y1="395.89" x2="1158" y2="395.89" xlink:href="#linear-gradient"/></defs><g class="cls-2"><path class="cls-3" d="M344,250c-70.68-24-132.08-22.14-208.7,1.56C72.21,271.08,26.26,306-3,332.89L-56,410V-109H1163.5q7.24,211.44,14.5,422.89c-33.45-32.71-85.39-73.12-155.91-88.36C955.15,211.06,919.11,212.21,821,250,712.5,291.79,491.2,300,344,250Z" transform="translate(56 109)"/><path class="cls-4" d="M0,342H0m0,0H0" transform="translate(56 109)"/></g><path class="cls-5" d="M19,292.89" transform="translate(56 109)"/><path class="cls-4" d="M287.42,114.24q5.41,5.37,5.41,16.19v27.46H272.94v-24q0-8.28-5.89-8.28a6.9,6.9,0,0,0-5.42,2.34q-2.06,2.32-2.06,7.34v22.62H239.68V92.59h19.89v21a20.09,20.09,0,0,1,13.55-4.76Q282,108.87,287.42,114.24Z" transform="translate(56 109)"/><path class="cls-4" d="M353.29,138.44H319.85a8.05,8.05,0,0,0,3.52,4.18,11.93,11.93,0,0,0,6.16,1.45,15.5,15.5,0,0,0,5.32-.79,18.71,18.71,0,0,0,4.71-2.73L349.94,151q-7,7.74-21,7.74a34.6,34.6,0,0,1-15.31-3.21,24.3,24.3,0,0,1-10.21-8.93,24.86,24.86,0,0,1,0-25.74,24.3,24.3,0,0,1,9.76-8.85,32.14,32.14,0,0,1,27.28-.26,22.9,22.9,0,0,1,9.6,8.53,24.74,24.74,0,0,1,3.56,13.47C353.55,134.07,353.46,135.63,353.29,138.44ZM322.13,124.1a7.92,7.92,0,0,0-2.64,4.75H335a8.12,8.12,0,0,0-2.64-4.71,7.63,7.63,0,0,0-5.1-1.71A7.72,7.72,0,0,0,322.13,124.1Z" transform="translate(56 109)"/><path class="cls-4" d="M412.51,109.75l-19.8,49.11q-3.78,9.4-9.42,13.2a24.21,24.21,0,0,1-13.81,3.78,28.8,28.8,0,0,1-8.14-1.19,18.15,18.15,0,0,1-6.47-3.12l6.6-13.64a13.18,13.18,0,0,0,3.39,1.85,10.43,10.43,0,0,0,3.65.7,6.17,6.17,0,0,0,4.93-1.93L353.2,109.75h20.41l9.95,25.79,10.12-25.79Z" transform="translate(56 109)"/><path class="cls-4" d="M430.29,139.15a10.73,10.73,0,0,1,3.25,8.18,17.58,17.58,0,0,1-.61,4.58,48.32,48.32,0,0,1-2.82,7L424,172H411.63L416,157.1a9.69,9.69,0,0,1-4.22-3.83,11.35,11.35,0,0,1-1.5-5.94,10.7,10.7,0,0,1,3.26-8.18,12.89,12.89,0,0,1,16.72,0Z" transform="translate(56 109)"/><path class="cls-4" d="M467.38,103a9.64,9.64,0,0,1,0-14.52A12.77,12.77,0,0,1,476,85.64a13.16,13.16,0,0,1,8.72,2.73,8.8,8.8,0,0,1,3.25,7,9.71,9.71,0,0,1-3.25,7.52,12.5,12.5,0,0,1-8.72,2.95A12.72,12.72,0,0,1,467.38,103Zm-1.28,6.73H486v48.14H466.1Z" transform="translate(56 109)"/><path class="cls-4" d="M512.12,94.79a10.77,10.77,0,0,1,3.26,8.19,17.53,17.53,0,0,1-.62,4.57,47.53,47.53,0,0,1-2.81,7l-6.16,13.11H493.47l4.4-14.87a9.77,9.77,0,0,1-4.23-3.83,11.34,11.34,0,0,1-1.49-5.94,10.76,10.76,0,0,1,3.25-8.19,12.89,12.89,0,0,1,16.72,0Z" transform="translate(56 109)"/><path class="cls-4" d="M599.2,114.24q5.24,5.37,5.23,16.19v27.46H584.54v-24q0-8.28-5.36-8.28a5.57,5.57,0,0,0-4.54,2.12q-1.71,2.1-1.71,6.68v23.5H553v-24q0-8.28-5.37-8.28a5.55,5.55,0,0,0-4.53,2.12q-1.71,2.1-1.71,6.68v23.5H521.54V109.75h18.92v4.49a18.47,18.47,0,0,1,13.64-5.37,20.44,20.44,0,0,1,8.71,1.81,15.26,15.26,0,0,1,6.34,5.5,19.44,19.44,0,0,1,7-5.41,21.5,21.5,0,0,1,9.06-1.9Q594,108.87,599.2,114.24Z" transform="translate(56 109)"/><path class="cls-4" d="M648.12,157.58A39.75,39.75,0,0,1,636.2,153l6.69-15.13a42.87,42.87,0,0,0,9.85,4.09,38.43,38.43,0,0,0,10.48,1.54,16.2,16.2,0,0,0,6.16-.84,2.67,2.67,0,0,0,1.84-2.51c0-1.29-.8-2.25-2.42-2.9a52.09,52.09,0,0,0-8-2.11A91.58,91.58,0,0,1,649,131.89a20.27,20.27,0,0,1-8.27-5.64q-3.53-3.91-3.52-10.6a18.28,18.28,0,0,1,3.25-10.56,21.53,21.53,0,0,1,9.73-7.48,40.37,40.37,0,0,1,15.71-2.73,57,57,0,0,1,12.45,1.37,39.12,39.12,0,0,1,10.78,4l-6.25,15q-9.06-4.58-17.16-4.58t-8,3.87c0,1.24.79,2.16,2.38,2.78a51.49,51.49,0,0,0,7.83,2,81.33,81.33,0,0,1,11.88,3,20.67,20.67,0,0,1,8.4,5.59q3.57,3.87,3.57,10.56a18.09,18.09,0,0,1-3.26,10.52,22,22,0,0,1-9.72,7.48A40,40,0,0,1,663,159.3,64.36,64.36,0,0,1,648.12,157.58Z" transform="translate(56 109)"/><path class="cls-4" d="M698.55,103a9.64,9.64,0,0,1,0-14.52,12.79,12.79,0,0,1,8.66-2.86,13.14,13.14,0,0,1,8.72,2.73,8.77,8.77,0,0,1,3.25,7,9.68,9.68,0,0,1-3.25,7.52,12.48,12.48,0,0,1-8.72,2.95A12.74,12.74,0,0,1,698.55,103Zm-1.28,6.73h19.89v48.14H697.27Z" transform="translate(56 109)"/><path class="cls-4" d="M803.62,114.24q5.24,5.37,5.23,16.19v27.46H789v-24q0-8.28-5.37-8.28a5.54,5.54,0,0,0-4.53,2.12q-1.73,2.1-1.72,6.68v23.5H757.46v-24q0-8.28-5.37-8.28a5.57,5.57,0,0,0-4.53,2.12q-1.71,2.1-1.71,6.68v23.5H726V109.75h18.92v4.49a18.47,18.47,0,0,1,13.64-5.37,20.44,20.44,0,0,1,8.71,1.81,15.26,15.26,0,0,1,6.34,5.5,19.44,19.44,0,0,1,7-5.41,21.5,21.5,0,0,1,9.06-1.9Q798.39,108.87,803.62,114.24Z" transform="translate(56 109)"/><path class="cls-4" d="M829.4,155.56a24.8,24.8,0,0,1-10-8.89,24.82,24.82,0,0,1,0-25.78,24.42,24.42,0,0,1,10-8.85,34.43,34.43,0,0,1,28.86,0,24.06,24.06,0,0,1,10,8.85,25.12,25.12,0,0,1,0,25.78,24.43,24.43,0,0,1-10,8.89,34,34,0,0,1-28.86,0Zm20-14.79a10.22,10.22,0,0,0,2.2-7q0-4.49-2.2-7a7.65,7.65,0,0,0-11.26,0q-2.2,2.46-2.2,7a10.22,10.22,0,0,0,2.2,7,7.57,7.57,0,0,0,11.26,0Z" transform="translate(56 109)"/><path class="cls-4" d="M925.76,114.24q5.41,5.37,5.41,16.19v27.46H911.29v-24q0-8.28-5.9-8.28a6.86,6.86,0,0,0-5.41,2.34q-2.07,2.32-2.07,7.34v22.62H878V109.75h18.92v4.76a18.4,18.4,0,0,1,6.51-4.23,22.33,22.33,0,0,1,8-1.41Q920.36,108.87,925.76,114.24Z" transform="translate(56 109)"/><path class="cls-4" d="M937.33,96.29h23.76l-4,38H941.29Zm3.52,59.4a9.91,9.91,0,0,1-3.25-7.48,9.62,9.62,0,0,1,3.25-7.44,13.36,13.36,0,0,1,16.72,0,9.62,9.62,0,0,1,3.26,7.44,9.92,9.92,0,0,1-3.26,7.48,12.89,12.89,0,0,1-16.72,0Z" transform="translate(56 109)"/><path class="cls-4" d="M480,122.89" transform="translate(56 109)"/><path class="cls-4" d="M540,142.89" transform="translate(56 109)"/><path class="cls-6" d="M1158,395.89" transform="translate(56 109)"/></svg>